# xmcd
#
# Track frame offsets:
#	150
#	15458
#	29381
#	42974
#	56601
#	67160
#	78765
#	95999
#	113189
#	122772
#
# Disc length: 1831 seconds
#
# Revision: 0
# Processed by: cddbd v1.5.2PL0 Copyright (c) Steve Scherf et al.
# Submitted via: audiograbber 1.83.01
#
DISCID=8307250a
DTITLE=George Jones - The Songs I Wanta Sing
DYEAR=1995
DGENRE=Crossover
TTITLE0=I Still Sing The Old Songs
TTITLE1=I'll Take You To My World
TTITLE2=She Loves Me (Right Out Of My Mind)
TTITLE3=I'm Not Ready Yet
TTITLE4=The Race Is On
TTITLE5=Ain't Nobody Gonna Miss Me
TTITLE6=I Wanta Sing
TTITLE7=Bartender's Blues
TTITLE8=We Can Make It
TTITLE9=He Stopped Loving Her Today
EXTD=
EXTT0=
EXTT1=
EXTT2=
EXTT3=
EXTT4=
EXTT5=
EXTT6=
EXTT7=
EXTT8=
EXTT9=
PLAYORDER=
